<svg width="148" height="48" viewBox="0 0 148 48" fill="none" xmlns="http://www.w3.org/2000/svg">
<path d="M19.052 36.432C17.396 36.432 15.908 36.048 14.588 35.28C13.292 34.512 12.272 33.432 11.528 32.04C10.784 30.624 10.412 28.968 10.412 27.072C10.412 25.176 10.784 23.532 11.528 22.14C12.296 20.748 13.328 19.668 14.624 18.9C15.92 18.108 17.396 17.712 19.052 17.712C21.332 17.712 23.168 18.288 24.56 19.44C25.976 20.568 26.876 22.128 27.26 24.12H23.264C23.024 23.256 22.532 22.572 21.788 22.068C21.068 21.564 20.144 21.312 19.016 21.312C18.2 21.312 17.42 21.528 16.676 21.96C15.956 22.392 15.368 23.04 14.912 23.904C14.48 24.744 14.264 25.8 14.264 27.072C14.264 28.32 14.48 29.376 14.912 30.24C15.368 31.104 15.956 31.764 16.676 32.22C17.42 32.652 18.2 32.868 19.016 32.868C20.168 32.868 21.092 32.616 21.788 32.112C22.484 31.608 22.976 30.912 23.264 30.024H27.26C26.78 31.992 25.844 33.552 24.452 34.704C23.06 35.856 21.26 36.432 19.052 36.432Z" fill="#B8E23E"/>
<path d="M40.8 36.432C39.096 36.432 37.572 36.048 36.228 35.28C34.884 34.512 33.828 33.432 33.06 32.04C32.292 30.624 31.908 28.968 31.908 27.072C31.908 25.176 32.292 23.532 33.06 22.14C33.828 20.724 34.884 19.632 36.228 18.864C37.572 18.096 39.108 17.712 40.836 17.712C42.564 17.712 44.088 18.096 45.408 18.864C46.752 19.632 47.796 20.724 48.54 22.14C49.308 23.532 49.692 25.176 49.692 27.072C49.692 28.968 49.308 30.624 48.54 32.04C47.772 33.432 46.716 34.512 45.372 35.28C44.052 36.048 42.528 36.432 40.8 36.432ZM40.8 32.796C41.712 32.796 42.552 32.592 43.32 32.184C44.088 31.776 44.7 31.152 45.156 30.312C45.636 29.448 45.876 28.368 45.876 27.072C45.876 25.752 45.636 24.672 45.156 23.832C44.7 22.992 44.088 22.368 43.32 21.96C42.576 21.552 41.748 21.348 40.836 21.348C39.924 21.348 39.084 21.552 38.316 21.96C37.548 22.368 36.924 22.992 36.444 23.832C35.988 24.672 35.76 25.752 35.76 27.072C35.76 29.04 36.252 30.492 37.236 31.428C38.244 32.34 39.432 32.796 40.8 32.796Z" fill="#B8E23E"/>
<path d="M54.772 36V32.688H59.128V22.644C59.128 21.852 58.744 21.456 57.976 21.456H55.132V18.144H59.416C60.4 18.144 61.204 18.432 61.828 19.008C62.452 19.56 62.764 20.34 62.764 21.348V21.78H62.944C63.208 20.436 63.772 19.428 64.636 18.756C65.524 18.06 66.808 17.712 68.488 17.712H71.26V21.744H67.372C65.956 21.744 64.864 22.236 64.096 23.22C63.328 24.204 62.944 25.38 62.944 26.748V32.688H68.488V36H54.772Z" fill="#B8E23E"/>
<path d="M86.744 36C84.992 36 83.6 35.58 82.568 34.74C81.536 33.876 81.02 32.352 81.02 30.168V21.384H76.52V18.144H79.184C80.408 18.144 81.128 17.544 81.344 16.344L81.884 13.464H84.836V18.144H91.892V21.384H84.836V30.096C84.836 31.032 85.04 31.692 85.448 32.076C85.88 32.436 86.612 32.616 87.644 32.616H91.82V36H86.744Z" fill="#B8E23E"/>
<path d="M107.016 36.432C105.288 36.432 103.764 36.048 102.444 35.28C101.124 34.488 100.092 33.396 99.348 32.004C98.604 30.612 98.232 28.992 98.232 27.144C98.232 25.272 98.592 23.628 99.312 22.212C100.056 20.796 101.088 19.692 102.408 18.9C103.752 18.108 105.3 17.712 107.052 17.712C108.78 17.712 110.268 18.108 111.516 18.9C112.764 19.668 113.724 20.7 114.396 21.996C115.092 23.292 115.44 24.72 115.44 26.28C115.44 26.52 115.44 26.784 115.44 27.072C115.44 27.336 115.428 27.636 115.404 27.972H101.976C102.096 29.628 102.636 30.888 103.596 31.752C104.556 32.592 105.684 33.012 106.98 33.012C108.108 33.012 108.996 32.784 109.644 32.328C110.316 31.848 110.808 31.2 111.12 30.384H114.972C114.54 32.088 113.64 33.528 112.272 34.704C110.904 35.856 109.152 36.432 107.016 36.432ZM107.016 21.024C105.84 21.024 104.796 21.384 103.884 22.104C102.972 22.8 102.384 23.784 102.12 25.056H111.624C111.528 23.856 111.06 22.884 110.22 22.14C109.38 21.396 108.312 21.024 107.016 21.024Z" fill="#B8E23E"/>
<path d="M120.16 36L126.28 27.072L119.944 18.144H124.192L128.8 24.804L133.408 18.144H137.656L131.32 27.072L137.44 36H133.192L128.8 29.34L124.372 36H120.16Z" fill="#B8E23E"/>
</svg>
