<svg width="200" height="48" viewBox="0 0 200 48" fill="none" xmlns="http://www.w3.org/2000/svg">
<path d="M21.7071 31.7071C21.8946 31.8946 22 32.149 22 32.4142V38.0343C22 38.3907 21.5691 38.5691 21.3172 38.3172L9.70711 26.7071C9.31658 26.3166 9.31658 25.6834 9.70711 25.2929L21.3172 13.6828C21.5691 13.4309 22 13.6093 22 13.9657V19.5858C22 19.851 21.8946 20.1054 21.7071 20.2929L16 26L21.7071 31.7071Z" fill="#B8E23E"/>
<path d="M39.052 36.432C37.396 36.432 35.908 36.048 34.588 35.28C33.292 34.512 32.272 33.432 31.528 32.04C30.784 30.624 30.412 28.968 30.412 27.072C30.412 25.176 30.784 23.532 31.528 22.14C32.296 20.748 33.328 19.668 34.624 18.9C35.92 18.108 37.396 17.712 39.052 17.712C41.332 17.712 43.168 18.288 44.56 19.44C45.976 20.568 46.876 22.128 47.26 24.12H43.264C43.024 23.256 42.532 22.572 41.788 22.068C41.068 21.564 40.144 21.312 39.016 21.312C38.2 21.312 37.42 21.528 36.676 21.96C35.956 22.392 35.368 23.04 34.912 23.904C34.48 24.744 34.264 25.8 34.264 27.072C34.264 28.32 34.48 29.376 34.912 30.24C35.368 31.104 35.956 31.764 36.676 32.22C37.42 32.652 38.2 32.868 39.016 32.868C40.168 32.868 41.092 32.616 41.788 32.112C42.484 31.608 42.976 30.912 43.264 30.024H47.26C46.78 31.992 45.844 33.552 44.452 34.704C43.06 35.856 41.26 36.432 39.052 36.432Z" fill="#B8E23E"/>
<path d="M60.8 36.432C59.096 36.432 57.572 36.048 56.228 35.28C54.884 34.512 53.828 33.432 53.06 32.04C52.292 30.624 51.908 28.968 51.908 27.072C51.908 25.176 52.292 23.532 53.06 22.14C53.828 20.724 54.884 19.632 56.228 18.864C57.572 18.096 59.108 17.712 60.836 17.712C62.564 17.712 64.088 18.096 65.408 18.864C66.752 19.632 67.796 20.724 68.54 22.14C69.308 23.532 69.692 25.176 69.692 27.072C69.692 28.968 69.308 30.624 68.54 32.04C67.772 33.432 66.716 34.512 65.372 35.28C64.052 36.048 62.528 36.432 60.8 36.432ZM60.8 32.796C61.712 32.796 62.552 32.592 63.32 32.184C64.088 31.776 64.7 31.152 65.156 30.312C65.636 29.448 65.876 28.368 65.876 27.072C65.876 25.752 65.636 24.672 65.156 23.832C64.7 22.992 64.088 22.368 63.32 21.96C62.576 21.552 61.748 21.348 60.836 21.348C59.924 21.348 59.084 21.552 58.316 21.96C57.548 22.368 56.924 22.992 56.444 23.832C55.988 24.672 55.76 25.752 55.76 27.072C55.76 29.04 56.252 30.492 57.236 31.428C58.244 32.34 59.432 32.796 60.8 32.796Z" fill="#B8E23E"/>
<path d="M74.772 36V32.688H79.128V22.644C79.128 21.852 78.744 21.456 77.976 21.456H75.132V18.144H79.416C80.4 18.144 81.204 18.432 81.828 19.008C82.452 19.56 82.764 20.34 82.764 21.348V21.78H82.944C83.208 20.436 83.772 19.428 84.636 18.756C85.524 18.06 86.808 17.712 88.488 17.712H91.26V21.744H87.372C85.956 21.744 84.864 22.236 84.096 23.22C83.328 24.204 82.944 25.38 82.944 26.748V32.688H88.488V36H74.772Z" fill="#B8E23E"/>
<path d="M106.744 36C104.992 36 103.6 35.58 102.568 34.74C101.536 33.876 101.02 32.352 101.02 30.168V21.384H96.52V18.144H99.184C100.408 18.144 101.128 17.544 101.344 16.344L101.884 13.464H104.836V18.144H111.892V21.384H104.836V30.096C104.836 31.032 105.04 31.692 105.448 32.076C105.88 32.436 106.612 32.616 107.644 32.616H111.82V36H106.744Z" fill="#B8E23E"/>
<path d="M127.016 36.432C125.288 36.432 123.764 36.048 122.444 35.28C121.124 34.488 120.092 33.396 119.348 32.004C118.604 30.612 118.232 28.992 118.232 27.144C118.232 25.272 118.592 23.628 119.312 22.212C120.056 20.796 121.088 19.692 122.408 18.9C123.752 18.108 125.3 17.712 127.052 17.712C128.78 17.712 130.268 18.108 131.516 18.9C132.764 19.668 133.724 20.7 134.396 21.996C135.092 23.292 135.44 24.72 135.44 26.28C135.44 26.52 135.44 26.784 135.44 27.072C135.44 27.336 135.428 27.636 135.404 27.972H121.976C122.096 29.628 122.636 30.888 123.596 31.752C124.556 32.592 125.684 33.012 126.98 33.012C128.108 33.012 128.996 32.784 129.644 32.328C130.316 31.848 130.808 31.2 131.12 30.384H134.972C134.54 32.088 133.64 33.528 132.272 34.704C130.904 35.856 129.152 36.432 127.016 36.432ZM127.016 21.024C125.84 21.024 124.796 21.384 123.884 22.104C122.972 22.8 122.384 23.784 122.12 25.056H131.624C131.528 23.856 131.06 22.884 130.22 22.14C129.38 21.396 128.312 21.024 127.016 21.024Z" fill="#B8E23E"/>
<path d="M140.16 36L146.28 27.072L139.944 18.144H144.192L148.8 24.804L153.408 18.144H157.656L151.32 27.072L157.44 36H153.192L148.8 29.34L144.372 36H140.16Z" fill="#B8E23E"/>
<path d="M166.293 31.7071C166.105 31.8946 166 32.149 166 32.4142V38.0343C166 38.3907 166.431 38.5691 166.683 38.3172L178.293 26.7071C178.683 26.3166 178.683 25.6834 178.293 25.2929L166.683 13.6828C166.431 13.4309 166 13.6093 166 13.9657V19.5858C166 19.851 166.105 20.1054 166.293 20.2929L172 26L166.293 31.7071Z" fill="#B8E23E"/>
<rect x="178" y="34" width="14" height="4" rx="1" fill="#B8E23E"/>
</svg>
