<svg width="32" height="32" viewBox="0 0 32 32" fill="none" xmlns="http://www.w3.org/2000/svg">
<path d="M13.7071 21.7071C13.8946 21.8946 14 22.149 14 22.4142V28.0343C14 28.3907 13.5691 28.5691 13.3172 28.3172L1.70711 16.7071C1.31658 16.3166 1.31658 15.6834 1.70711 15.2929L13.3172 3.68284C13.5691 3.43086 14 3.60932 14 3.96569V9.58579C14 9.851 13.8946 10.1054 13.7071 10.2929L8 16L13.7071 21.7071Z" fill="#B8E23E"/>
<path d="M18.2929 21.7071C18.1054 21.8946 18 22.149 18 22.4142V28.0343C18 28.3907 18.4309 28.5691 18.6828 28.3172L30.2929 16.7071C30.6834 16.3166 30.6834 15.6834 30.2929 15.2929L18.6828 3.68284C18.4309 3.43086 18 3.60932 18 3.96569V9.58579C18 9.851 18.1054 10.1054 18.2929 10.2929L24 16L18.2929 21.7071Z" fill="#B8E23E"/>
</svg>
